{
	"asset":{
		"generator":"Khronos glTF Blender I/O v4.1.62",
		"version":"2.0"
	},
	"scene":0,
	"scenes":[
		{
			"name":"Scene",
			"nodes":[
				0
			]
		}
	],
	"nodes":[
		{
			"mesh":0,
			"name":"\u5186\u67f1",
			"rotation":[
				0.7071068286895752,
				0,
				0,
				0.7071068286895752
			],
			"scale":[
				1.4760223627090454,
				4.191554069519043,
				1.4760223627090454
			]
		}
	],
	"meshes":[
		{
			"name":"\u5186\u67f1",
			"primitives":[
				{
					"attributes":{
						"POSITION":0,
						"NORMAL":1,
						"TEXCOORD_0":2
					},
					"indices":3
				}
			]
		}
	],
	"accessors":[
		{
			"bufferView":0,
			"componentType":5126,
			"count":108,
			"max":[
				1,
				1,
				0
			],
			"min":[
				-1,
				-1,
				-1.4352623224258423
			],
			"type":"VEC3"
		},
		{
			"bufferView":1,
			"componentType":5126,
			"count":108,
			"type":"VEC3"
		},
		{
			"bufferView":2,
			"componentType":5126,
			"count":108,
			"type":"VEC2"
		},
		{
			"bufferView":3,
			"componentType":5123,
			"count":204,
			"type":"SCALAR"
		}
	],
	"bufferViews":[
		{
			"buffer":0,
			"byteLength":1296,
			"byteOffset":0,
			"target":34962
		},
		{
			"buffer":0,
			"byteLength":1296,
			"byteOffset":1296,
			"target":34962
		},
		{
			"buffer":0,
			"byteLength":864,
			"byteOffset":2592,
			"target":34962
		},
		{
			"buffer":0,
			"byteLength":408,
			"byteOffset":3456,
			"target":34963
		}
	],
	"buffers":[
		{
			"byteLength":3864,
			"uri":"Tunnel1.bin"
		}
	]
}
